<svg width="32" height="32" viewBox="0 0 32 32" fill="none" xmlns="http://www.w3.org/2000/svg">
  <defs>
    <linearGradient id="faviconGradient" x1="0%" y1="0%" x2="100%" y2="100%">
      <stop offset="0%" style="stop-color:#3B82F6;stop-opacity:1" />
      <stop offset="100%" style="stop-color:#8B5CF6;stop-opacity:1" />
    </linearGradient>
  </defs>
  
  <!-- Head outline -->
  <path d="M16 4C20 4 24 6 26 10C27 14 26 19 24 22C22 25 20 26 16 26C12 26 10 25 8 22C6 19 5 14 6 10C8 6 12 4 16 4Z" 
        stroke="url(#faviconGradient)" 
        stroke-width="1.5" 
        fill="none"/>
  
  <!-- Neural network circuit -->
  <!-- Left nodes -->
  <circle cx="10" cy="12" r="1.5" fill="url(#faviconGradient)"/>
  <circle cx="10" cy="20" r="1.5" fill="url(#faviconGradient)"/>
  
  <!-- Central hub -->
  <rect x="14" y="14" width="4" height="4" rx="1.5" fill="url(#faviconGradient)"/>
  
  <!-- Right nodes -->
  <circle cx="22" cy="12" r="1.5" fill="url(#faviconGradient)"/>
  <circle cx="22" cy="20" r="1.5" fill="url(#faviconGradient)"/>
  
  <!-- Circuit connections -->
  <path d="M11.5 12L14 16" stroke="url(#faviconGradient)" stroke-width="1.5" stroke-linecap="round"/>
  <path d="M11.5 20L14 18" stroke="url(#faviconGradient)" stroke-width="1.5" stroke-linecap="round"/>
  <path d="M18 16L20.5 12" stroke="url(#faviconGradient)" stroke-width="1.5" stroke-linecap="round"/>
  <path d="M18 18L20.5 20" stroke="url(#faviconGradient)" stroke-width="1.5" stroke-linecap="round"/>
</svg>
